<svg width="607" height="278" viewBox="0 0 607 278" fill="none" xmlns="http://www.w3.org/2000/svg">
<path d="M68 108C68 116.667 65.2 123.533 59.6 128.6C54.1333 133.533 45.6667 136 34.2 136C22.7333 136 14.1333 133.533 8.4 128.6C2.8 123.533 1.78814e-07 116.667 1.78814e-07 108V28C1.78814e-07 19.3333 2.73333 12.5333 8.2 7.59999C13.8 2.53333 22.3333 -4.29153e-06 33.8 -4.29153e-06C45.2667 -4.29153e-06 53.8 2.53333 59.4 7.59999C65.1333 12.5333 68 19.3333 68 28V108ZM54 28C54 22.9333 52.3333 19 49 16.2C45.6667 13.4 40.6 12 33.8 12C27.1333 12 22.1333 13.4 18.8 16.2C15.6 19 14 22.9333 14 28V108C14 112.933 15.6667 116.867 19 119.8C22.3333 122.6 27.4 124 34.2 124C40.8667 124 45.8 122.6 49 119.8C52.3333 117 54 113.067 54 108V28ZM94.9531 133V2.99999H125.153C135.82 2.99999 143.753 5.53333 148.953 10.6C154.286 15.5333 156.953 22.3333 156.953 31V59C156.953 65.5333 155.486 71.0667 152.553 75.6C149.62 80 145.22 83.1333 139.353 85L163.953 133H148.553L125.153 87H108.953V133H94.9531ZM142.953 31C142.953 26.0667 141.42 22.2 138.353 19.4C135.42 16.4667 131.02 15 125.153 15H108.953V75H125.153C131.153 75 135.62 73.6 138.553 70.8C141.486 67.8667 142.953 63.9333 142.953 59V31ZM210.023 133H176.023V121H186.023V15H176.023V2.99999H210.023V15H200.023V121H210.023V133ZM298.938 108C298.938 116.667 296.138 123.533 290.538 128.6C285.071 133.533 276.604 136 265.138 136C253.671 136 245.071 133.533 239.338 128.6C233.738 123.533 230.938 116.667 230.938 108V28C230.938 19.3333 233.671 12.5333 239.138 7.59999C244.738 2.53333 253.271 -4.29153e-06 264.738 -4.29153e-06C276.204 -4.29153e-06 284.738 2.53333 290.338 7.59999C296.071 12.5333 298.938 19.3333 298.938 28V108ZM284.938 28C284.938 22.9333 283.271 19 279.938 16.2C276.604 13.4 271.538 12 264.738 12C258.071 12 253.071 13.4 249.738 16.2C246.538 19 244.938 22.9333 244.938 28V108C244.938 112.933 246.604 116.867 249.938 119.8C253.271 122.6 258.338 124 265.138 124C271.804 124 276.738 122.6 279.938 119.8C283.271 117 284.938 113.067 284.938 108V28ZM325.891 133V2.99999H339.291L383.291 103V2.99999H397.291V133H383.891L339.891 33V133H325.891ZM200.775 222.8C204.775 227.067 207.442 231.2 208.775 235.2C210.242 239.2 210.975 244.133 210.975 250C210.975 258.667 208.308 265.533 202.975 270.6C197.642 275.533 189.042 278 177.175 278C165.442 278 156.842 275.533 151.375 270.6C146.042 265.533 143.375 258.667 143.375 250V233H157.375V250.8C157.375 255.333 158.975 259 162.175 261.8C165.508 264.6 170.508 266 177.175 266C183.842 266 188.775 264.6 191.975 261.8C195.308 259 196.975 255.333 196.975 250.8C196.975 246.667 196.508 243.2 195.575 240.4C194.775 237.6 192.708 234.6 189.375 231.4L154.175 197C150.042 192.733 147.175 188.6 145.575 184.6C144.108 180.6 143.375 175.733 143.375 170C143.375 161.333 146.108 154.533 151.575 149.6C157.042 144.533 165.442 142 176.775 142C187.975 142 196.108 144.533 201.175 149.6C206.375 154.533 208.975 161.333 208.975 170V187H194.975V169.2C194.975 164.533 193.442 160.867 190.375 158.2C187.308 155.4 182.575 154 176.175 154C169.775 154 165.042 155.4 161.975 158.2C158.908 160.867 157.375 164.533 157.375 169.2C157.375 173.333 157.775 176.8 158.575 179.6C159.508 182.4 161.642 185.333 164.975 188.4L200.775 222.8ZM288.984 157H262.984V275H248.984V157H222.984V145H288.984V157ZM356.914 145H370.914V250C370.914 258.667 368.114 265.533 362.514 270.6C357.047 275.533 348.581 278 337.114 278C325.647 278 317.047 275.533 311.314 270.6C305.714 265.533 302.914 258.667 302.914 250V145H316.914V250C316.914 254.933 318.581 258.867 321.914 261.8C325.247 264.6 330.314 266 337.114 266C343.781 266 348.714 264.6 351.914 261.8C355.247 258.867 356.914 254.933 356.914 250V145ZM398.82 275V145H431.02C441.687 145 449.62 147.533 454.82 152.6C460.154 157.533 462.82 164.333 462.82 173V247C462.82 255.667 460.22 262.533 455.02 267.6C449.82 272.533 441.82 275 431.02 275H398.82ZM448.82 173C448.82 169.133 447.287 165.533 444.22 162.2C441.287 158.733 436.887 157 431.02 157H412.82V263H431.02C437.02 263 441.487 261.333 444.42 258C447.354 254.667 448.82 251 448.82 247V173ZM517.797 275H483.797V263H493.797V157H483.797V145H517.797V157H507.797V263H517.797V275ZM606.711 250C606.711 258.667 603.911 265.533 598.311 270.6C592.844 275.533 584.378 278 572.911 278C561.444 278 552.844 275.533 547.111 270.6C541.511 265.533 538.711 258.667 538.711 250V170C538.711 161.333 541.444 154.533 546.911 149.6C552.511 144.533 561.044 142 572.511 142C583.978 142 592.511 144.533 598.111 149.6C603.844 154.533 606.711 161.333 606.711 170V250ZM592.711 170C592.711 164.933 591.044 161 587.711 158.2C584.378 155.4 579.311 154 572.511 154C565.844 154 560.844 155.4 557.511 158.2C554.311 161 552.711 164.933 552.711 170V250C552.711 254.933 554.378 258.867 557.711 261.8C561.044 264.6 566.111 266 572.911 266C579.578 266 584.511 264.6 587.711 261.8C591.044 259 592.711 255.067 592.711 250V170Z" fill="black"/>
</svg>
